<svg height="512pt" viewBox="-2 0 512 512.00091" width="512pt" xmlns="http://www.w3.org/2000/svg"><path d="m406.808594 256.015625c0-84.503906-68.324219-153.007813-152.605469-153.007813s-152.605469 68.503907-152.605469 153.007813c0 84.507813 68.324219 153.011719 152.605469 153.011719s152.605469-68.503906 152.605469-153.011719zm0 0" fill="#97c9e8"/><path d="m254.203125 103.007812c-6.402344 0-12.710937.398438-18.902344 1.167969 75.359375 9.335938 133.699219 73.753907 133.699219 151.839844 0 78.089844-58.339844 142.507813-133.699219 151.84375 6.191407.765625 12.5 1.167969 18.902344 1.167969 84.28125 0 152.605469-68.503906 152.605469-153.011719 0-84.503906-68.324219-153.007813-152.605469-153.007813zm0 0" fill="#60b6ff"/><g fill="#baeb6c"><path d="m234.367188 162.472656c-23.507813 14.730469-41.140626 38.300782-27.914063 64.820313 13.222656 26.515625 42.609375 16.203125 69.789063 12.519531 27.179687-3.683594 6.609374 80.289062 22.773437 100.914062 16.160156 20.621094 61.707031-20.625 57.300781-47.144531-6.527344-39.257812-8.816406-53.03125 44.078125-81.023437l.140625-.050782c-17.828125-60.371093-71.792968-105.164062-136.777344-109.191406l-.007812.230469c.003906-.003906-5.875 44.191406-29.382812 58.925781zm0 0"/><path d="m349.816406 136.769531c.011719.007813.019532.015625.027344.023438-.007812-.007813-.015625-.015625-.027344-.023438zm0 0"/><path d="m368.476562 154.621094c.003907 0 .003907.003906.007813.007812-.003906-.003906-.003906-.007812-.007813-.007812zm0 0"/><path d="m152.824219 325.253906c-7.058594-10.765625 12.488281-36.089844 16.894531-55.242187 4.40625-19.152344-22.039062-17.679688-30.121094-24.308594-8.078125-6.628906-19.097656-35.355469-27.179687-41.984375l-1.292969-1.019531c-6.15625 16.601562-9.527344 34.566406-9.527344 53.316406 0 50.578125 24.476563 95.414063 62.195313 123.269531l.050781-3.207031s5.875-25.042969-11.019531-50.824219zm0 0"/></g><path d="m400.539062 212.507812c-6.40625-21.695312-17.480468-41.378906-32.054687-57.878906-.003906-.003906-.003906-.007812-.007813-.007812-5.699218-6.453125-11.933593-12.417969-18.628906-17.828125-.011718-.007813-.019531-.015625-.03125-.023438-23.839844-19.242187-53.570312-31.445312-86.054687-33.457031l-.007813.230469s-.339844 2.542969-1.175781 6.601562c54.945313 17.472657 96.417969 65.285157 104.84375 123.816407 7.292969-6.589844 17.886719-13.417969 32.972656-21.402344zm0 0" fill="#96d629"/><path d="m434.007812 500.664062c-110.519531-67.136718-249.324218-67.097656-359.808593.121094-2.433594 1.480469-5.566407-.191406-5.679688-3.042968-.613281-15.019532-2.816406-51.5-3.390625-60.914063-.082031-1.382813-.921875-2.601563-2.1875-3.175781-7.859375-3.570313-36.289062-16.488282-49.007812-22.375-2.714844-1.261719-2.925782-5.039063-.375-6.605469 147.523437-90.566406 333.476562-90.617187 481.039062-.148437 2.554688 1.5625 2.34375 5.335937-.371094 6.601562-13.25 6.175781-42.921874 20.6875-50.933593 24.609375-1.246094.613281-2.050781 1.859375-2.09375 3.246094-.285157 9.152343-1.34375 43.761719-1.507813 58.535156-.03125 2.898437-3.203125 4.65625-5.683594 3.148437zm0 0" fill="#49cb5c"/><path d="m494.601562 404.519531c-80.679687-49.460937-172.835937-71.863281-263.910156-67.210937 75.417969 3.851562 150.097656 26.253906 216.90625 67.210937 2.550782 1.566407 2.339844 5.339844-.371094 6.605469-13.25 6.171875-42.921874 20.683594-50.933593 24.609375-1.246094.609375-2.054688 1.859375-2.097657 3.246094-.195312 6.3125-.761718 24.734375-1.144531 40.410156 13.996094 6.125 27.683594 13.210937 40.957031 21.277344 2.480469 1.503906 5.652344-.25 5.683594-3.152344.164063-14.773437 1.222656-49.382813 1.507813-58.535156.042969-1.386719.847656-2.636719 2.097656-3.246094 8.011719-3.925781 37.679687-18.433594 50.933594-24.609375 2.710937-1.265625 2.921875-5.039062.371093-6.605469zm0 0" fill="#07b128"/><path d="m267.691406 7.769531c-5.65625 0-10.632812 3.34375-13.488281 8.398438-2.855469-5.050781-7.832031-8.398438-13.488281-8.398438-8.863282 0-16.042969 8.203125-16.042969 18.316407 0 26.050781 29.53125 34.347656 29.53125 34.347656s29.53125-7.753906 29.53125-34.347656c0-10.113282-7.183594-18.316407-16.042969-18.316407zm0 0" fill="#fd646f"/><path d="m390.105469 43.367188c-5.183594-2.261719-11.082031-1.1875-15.71875 2.300781-.597657-5.773438-3.820313-10.828125-9.003907-13.09375-8.121093-3.542969-17.984374 1.097656-22.03125 10.367187-10.425781 23.875 13.324219 43.292969 13.324219 43.292969s30.164063 4.710937 40.808594-19.660156c4.046875-9.269531.742187-19.660157-7.378906-23.207031zm0 0" fill="#fd646f"/><path d="m120.242188 45.371094c4.976562-2.691406 10.945312-2.121094 15.863281.960937.105469-5.800781 2.886719-11.113281 7.863281-13.808593 7.789062-4.21875 18.011719-.425782 22.828125 8.46875 12.40625 22.90625-9.617187 44.261718-9.617187 44.261718s-29.660157 7.25-42.320313-16.136718c-4.820313-8.894532-2.40625-19.527344 5.382813-23.746094zm0 0" fill="#fd646f"/><path d="m502.84375 415.746094c6.550781-1.691406 7.394531-10.988282 1.449219-14.03125-17.136719-10.832032-34.878907-20.484375-53.109375-28.949219 3.410156-6.242187 6.519531-12.628906 9.328125-19.136719.046875-.03125.097656-.046875.144531-.078125l31.722656-19.929687c8.15625-5.125.1875-17.832032-7.980468-12.703125l-15.371094 9.65625c3.992187-12.867188 6.859375-26.085938 8.558594-39.507813l24.40625-24.007812c6.863281-6.753906-3.648438-17.460938-10.523438-10.695313l-12.128906 11.933594c.0625-2.164063.101562-4.332031.101562-6.5 0-11.871094-.925781-23.679687-2.730468-35.324219l15.878906-32.886718c4.1875-8.671876-9.316406-15.210938-13.507813-6.523438l-7.410156 15.347656c-3.609375-13.597656-8.449219-26.84375-14.449219-39.566406l7.777344-29.710938c2.441406-9.316406-12.066406-13.128906-14.511719-3.796874l-3.652343 13.945312c-5.78125-9.730469-12.285157-19.0625-19.488282-27.890625-6.089844-7.460937-17.71875 2.011719-11.621094 9.484375 7.050782 8.644531 13.390626 17.808594 18.984376 27.375l-17.832032-4.21875c-9.371094-2.214844-12.839844 12.378906-3.453125 14.597656l30.515625 7.21875c5.59375 11.957032 10.101563 24.40625 13.441406 37.183594l-12.890624-8.957031c-7.90625-5.496094-16.480469 6.8125-8.5625 12.316406l25.898437 18c1.722656 11.007813 2.609375 22.175781 2.609375 33.402344 0 2.222656-.039062 4.441406-.105469 6.65625l-9.589843-12.667969c-5.816407-7.679688-17.785157 1.367188-11.960938 9.054688l19.707031 26.027343c-1.574219 11.699219-4.101562 23.21875-7.539062 34.460938l-6.125-13.457031c-3.988281-8.765626-17.648438-2.5625-13.652344 6.214843l12.488281 27.4375c-3.015625 7.207031-6.429687 14.257813-10.230468 21.121094-17.464844-7.4375-35.347657-13.796875-53.546876-19.046875 18.257813-25.910156 29-57.507812 29-91.574219 0-87.714843-71.183593-159.078125-158.679687-159.078125-23.101563 0-45.378906 4.867188-66.214844 14.472656-8.746093 4.03125-2.480469 17.65625 6.28125 13.621094 18.847657-8.6875 39.015625-13.09375 59.933594-13.09375.1875 0 .375.007813.5625.007813-3.125 14.074219-10.648437 36.554687-24.195313 45.042969-32.078124 20.105468-43.441406 47.738281-30.382812 73.917968 6.078125 12.1875 16.011719 19.28125 29.519531 21.089844 11.011719 1.472656 23.195313-.617188 34.980469-2.632812 4.085938-.699219 8.3125-1.421876 12.359375-1.96875 1.058594-.144532 2.652344-.359376 4.367187 5.664062 2.640626 9.292969 17.0625 5.164062 14.425782-4.101562-4.582032-16.125-15.003906-17.214844-20.808594-16.429688-4.304688.585938-8.664062 1.332031-12.875 2.050781-24.777344 4.242188-40.375 6.007813-48.542969-10.371093-13.335937-26.742188 12.988281-47.027344 24.925781-54.507813 20.257813-12.691406 28.566407-43.171875 31.363282-56.898437 56.003906 6.132812 102.4375 44.660156 120.210937 96.453124-24.320312 13.386719-36.238281 23.894532-41.851562 36.628907-6.078125 13.785156-3.652344 28.378906-.296875 48.574219 2.089844 12.554687-12.324219 31.636718-26.308594 39.714843-6.320312-.917969-12.667969-1.710937-19.035156-2.371093-3.484375-8.941407-3.574219-26.558594-3.632813-38.78125-.050781-9.640626-15.050781-9.710938-15.003906.074218.074219 14.625.398437 27.378906 2.644531 37.324219-10.765625-.746094-21.578125-1.125-32.425781-1.125-28.9375 0-57.636719 2.683594-85.777344 7.921875-1.957031-5.402344-4.65625-11.042969-8.378906-16.722656-2.007813-3.066406 4.476563-16.742188 7.957031-24.085938 3.914063-8.257812 7.960938-16.792968 9.816406-24.847656 2.011719-8.738281-.449218-16.042969-7.113281-21.121094-4.832031-3.683594-11.054687-5.527344-16.546875-7.152344-3.296875-.976562-7.398437-2.191406-8.730468-3.285156-2.863282-2.347656-7.925782-11.71875-11.621094-18.5625-4.441406-8.21875-8.390625-15.527344-12.480469-20.234375 8.578125-20.910156 22.042969-39.75 39.636719-54.8125 7.316406-6.261719-2.429688-17.667969-9.753906-11.394531-35.390626 30.296875-55.691407 74.40625-55.691407 121.015625 0 34.070313 10.746094 65.667969 29.007813 91.582031-18.203125 5.246094-36.082032 11.605469-53.550782 19.042969-3.800781-6.863281-7.214843-13.914063-10.230468-21.121094l12.484375-27.4375c3.992187-8.765625-9.65625-14.992187-13.652344-6.214843l-6.121094 13.457031c-3.441406-11.242188-5.964843-22.765625-7.539062-34.460938l19.707031-26.027343c5.8125-7.679688-6.136719-16.746094-11.960938-9.054688l-9.589843 12.664062c-.070313-2.214843-.109375-4.429687-.109375-6.652343 0-11.226563.890625-22.394531 2.613281-33.402344l25.894531-18c7.910156-5.496094-.640625-17.824219-8.5625-12.316406l-12.886718 8.957031c3.339843-12.777344 7.84375-25.226562 13.4375-37.183594l30.515624-7.21875c9.375-2.214844 5.933594-16.824218-3.449218-14.597656l-17.832032 4.21875c5.59375-9.570312 11.929688-18.730469 18.984376-27.378906 6.089843-7.460938-5.527344-16.953125-11.625-9.480469-7.203126 8.828125-13.707032 18.160156-19.488282 27.890625l-3.652344-13.949219c-2.4375-9.316406-16.953124-5.527343-14.511718 3.800781l7.777344 29.710938c-5.996094 12.71875-10.839844 25.96875-14.445313 39.566406l-7.410156-15.347656c-4.1875-8.671875-17.703125-2.164062-13.507813 6.523438l15.875 32.886718c-1.800781 11.640625-2.726562 23.449219-2.726562 35.320313 0 2.171875.039062 4.339843.097656 6.503906l-12.125-11.933594c-6.867188-6.753906-17.398438 3.929688-10.523438 10.695313l24.402344 24.007812c1.703125 13.421875 4.570313 26.640625 8.558594 39.507813l-15.367188-9.65625c-8.15625-5.125-16.148437 7.570312-7.980468 12.699219l31.722656 19.933593c.046875.027344.09375.046875.140625.074219 2.808594 6.511719 5.921875 12.898438 9.332031 19.140625-18.472656 8.578125-36.453125 18.375-53.800781 29.386719-3.957031 2.507812-4.609375 8.3125-1.285156 11.636718 1.261719 1.261719 1.453125 1.453126 55.433593 25.953126 1.457032 23.953124 3.441407 58.570312 3.398438 63.722656-.910156 6.320312 6.285156 10.78125 11.542969 7.339844 82.296875-52.183594 183.152343-66.46875 276.707031-39.1875 9.234375 2.691406 13.589844-11.664063 4.199219-14.402344-93.550781-27.28125-194.078125-14.761719-277.898438 34.199218-.277343-5.683593-.679687-13.21875-1.203125-22.4375-.972656-17.171874-2.039062-34.488281-2.050781-34.660156-.167969-2.773437-1.855469-5.222656-4.386719-6.371094-13.886718-6.300781-32.542968-14.792968-44.648437-20.351562 69.921875-41.453125 149.476562-63.296875 230.972656-63.296875 81.421875 0 160.90625 21.804687 230.785156 63.1875-4.582031 2.179687-10.355469 4.957031-17.222656 8.28125-14.65625 7.097656-29.445313 14.351563-29.589844 14.425781-2.492187 1.21875-4.105469 3.71875-4.195312 6.496094-.003907.164062-.535157 16.945312-.980469 33.585938-.230469 8.492187-.394531 15.511718-.5 20.917968-13.292969-7.742187-27.113281-14.636718-41.234375-20.5625-8.890625-3.730468-14.804687 10.054688-5.804687 13.832032 17.441406 7.320312 34.40625 16.179687 50.421874 26.339843 5.339844 3.503907 12.648438-1.152343 11.515626-7.570312-.195313-5.054688.71875-38.40625 1.433593-61.558594m-86.070312-149.671875c-3.039063-18.289062-5.050781-30.371094-.777344-40.0625 3.910156-8.875 13.488281-17.199219 32.335937-27.855469 2.328126 10.277344 3.5625 20.964844 3.5625 31.933594 0 32.832031-11.015624 63.128906-29.527343 87.386719-8.734375-2.195313-17.539063-4.125-26.394531-5.8125 13.371093-12.5 23.308593-30.496094 20.800781-45.589844zm-252.238281-35.984375c0-12.617187 1.652343-25.027344 4.808593-36.964844 1.824219 3.132813 3.675781 6.5625 5.273438 9.519531 5.453125 10.09375 10.164062 18.808594 15.308593 23.03125 3.675782 3.015626 8.683594 4.496094 13.984376 6.066407 13.578124 4.023437 14.375 5.871093 13.300781 10.53125-1.488281 6.464843-5.179688 14.25-8.75 21.78125-6.980469 14.722656-13.574219 28.628906-6.953125 38.738281 2.5625 3.90625 4.523437 7.777344 6.039062 11.519531-4.511718.992188-9.007812 2.039063-13.480468 3.164063-18.515626-24.253906-29.53125-54.550782-29.53125-87.386719zm335.996093 244.789063c.339844.582031.589844 1.191406.742188 1.808593-.167969-.632812-.417969-1.238281-.742188-1.808593zm0 0"/><path d="m235.03125 58.890625c8.375 6.042969 16.789062 8.449219 17.144531 8.550781.660157.183594 1.34375.277344 2.027344.277344.640625 0 1.28125-.082031 1.902344-.246094 12.164062-3.191406 35.164062-16 35.164062-41.636718 0-14.246094-10.570312-25.835938-23.5625-25.835938-4.941406 0-9.621093 1.648438-13.503906 4.628906-3.886719-2.980468-8.5625-4.628906-13.503906-4.628906-12.992188 0-23.5625 11.589844-23.5625 25.835938 0 13.171874 6.1875 24.601562 17.894531 33.054687zm5.667969-43.890625c2.738281 0 5.347656 1.71875 6.972656 4.597656 1.332031 2.355469 3.828125 3.808594 6.53125 3.808594s5.195313-1.453125 6.527344-3.808594c1.628906-2.878906 4.234375-4.597656 6.976562-4.597656 4.640625 0 8.558594 4.964844 8.558594 10.835938 0 17.140624-16.242187 24.445312-22 26.496093-5.8125-2.160156-22.128906-9.71875-22.128906-26.496093 0-5.871094 3.921875-10.835938 8.5625-10.835938zm0 0"/><path d="m352.042969 91.855469c1.03125.84375 2.269531 1.398437 3.589843 1.605469 2.0625.320312 4.503907.519531 7.1875.519531 13.496094 0 33.140626-5.019531 41.695313-24.609375 5.703125-13.058594.652344-27.910156-11.253906-33.105469-4.527344-1.976563-9.476563-2.335937-14.230469-1.164063-2.367188-4.28125-5.996094-7.664062-10.523438-9.644531-11.90625-5.199219-26.230468 1.195313-31.933593 14.25-5.269531 12.074219-4.171875 25.023438 3.175781 37.453125 5.257812 8.890625 12.007812 14.460938 12.292969 14.695313zm-1.71875-46.144531c2.351562-5.382813 7.929687-8.363282 12.183593-6.503907 2.507813 1.09375 4.210938 3.710938 4.550782 7.003907.277344 2.6875 1.980468 5.019531 4.460937 6.101562 2.476563 1.082031 5.34375.746094 7.503907-.878906 2.644531-1.984375 5.722656-2.519532 8.234374-1.421875 4.253907 1.859375 5.859376 7.972656 3.511719 13.355469-6.859375 15.710937-24.671875 15.902343-30.769531 15.480468-4.460938-4.304687-16.390625-17.761718-9.675781-33.136718zm0 0"/><path d="m146.992188 93.683594c4.574218 0 8.691406-.554688 11.859374-1.328125 1.296876-.316407 2.484376-.972657 3.441407-1.902344.265625-.253906 6.519531-6.378906 11.003906-15.679687 6.273437-13.007813 6.269531-26.003907-.003906-37.585938-6.78125-12.527344-21.59375-17.6875-33.023438-11.5-4.34375 2.351562-7.671875 6.03125-9.667969 10.5-4.835937-.769531-9.734374.007812-14.078124 2.359375-5.703126 3.085937-9.671876 8.4375-11.175782 15.066406-1.417968 6.265625-.441406 12.964844 2.757813 18.871094 9.042969 16.699219 25.824219 21.199219 38.886719 21.199219zm-27.011719-36.75c.53125-2.351563 1.839843-4.195313 3.6875-5.195313 1.007812-.546875 2.140625-.816406 3.324219-.816406 1.636718 0 3.371093.519531 4.996093 1.539063 2.292969 1.4375 5.179688 1.527343 7.554688.242187 2.378906-1.289063 3.878906-3.757813 3.929687-6.460937.058594-3.304688 1.535156-6.058594 3.941406-7.363282 4.085938-2.210937 9.894532.289063 12.691407 5.453125 7.992187 14.761719-2.773438 29.1875-6.839844 33.832031-6.070313.945313-23.8125 2.242188-31.96875-12.820312-1.464844-2.707031-1.933594-5.695312-1.316406-8.410156zm0 0"/><path d="m137.722656 430.742188-20.851562 7.222656-3.941406-11.371094 17.660156-6.117188c9.101562-3.152343 4.207031-17.324218-4.910156-14.175781l-17.660157 6.117188-3.660156-10.570313 20.851563-7.222656c9.101562-3.152344 4.203124-17.332031-4.910157-14.175781l-27.941406 9.679687c-3.863281 1.339844-5.96875 5.679688-4.628906 9.542969l17.421875 50.289063c1.320312 3.816406 5.730468 5.953124 9.542968 4.632812l27.941407-9.679688c9.097656-3.152343 4.199219-17.328124-4.914063-14.171874zm0 0"/><path d="m184.675781 369.046875c-3.46875-5.722656-12.460937-4.136719-13.765625 2.425781l-11.230468 56.394532c-1.878907 9.445312 12.816406 12.457031 14.714843 2.929687l1.734375-8.71875 20.96875-3.636719 4.171875 6.875c4.996094 8.234375 17.828125.46875 12.824219-7.777344zm-5.40625 37.261719 2.585938-12.992188 6.882812 11.347656zm0 0"/><path d="m269.324219 399.214844c3.523437-3.523438 5.964843-8.554688 5.964843-15.421875 0-10.347657-4.917968-16.320313-9.042968-19.503907-4.371094-3.378906-10.121094-5.316406-15.777344-5.316406h-13.519531c-4.140625 0-7.5 3.359375-7.5 7.5v53.226563c0 9.628906 15 9.644531 15 0v-13.558594c1.839843.042969 3.980469.105469 6.046875.214844 4.550781.238281 10.214844.535156 10.214844 13.34375 0 9.628906 15 9.644531 15 0 0-8.777344-2.199219-15.679688-6.386719-20.484375zm-24.875-25.242188h6.015625c1.640625 0 9.820312.472656 9.820312 9.820313 0 3.660156-1.445312 5.007812-2.863281 5.84375-1.996094 1.179687-4.480469 1.4375-5.265625 1.4375h-7.707031zm0 0"/><path d="m330.785156 380.042969 12.636719 1.878906c9.503906 1.414063 11.746094-13.421875 2.207031-14.839844l-20.050781-2.980469c-.003906 0-.003906-.003906-.003906-.003906-.003907 0-.003907 0-.007813 0l-20.050781-2.980468c-9.527344-1.414063-11.746094 13.417968-2.207031 14.839843l12.636718 1.878907-6.722656 45.226562c-1.417968 9.523438 13.40625 11.832031 14.835938 2.207031zm0 0"/><path d="m394.71875 426.257812-6.085938 19.003907c-2.941406 9.171875 11.339844 13.769531 14.285157 4.574219l16.234375-50.6875c2.9375-9.171876-11.347656-13.761719-14.289063-4.574219l-5.570312 17.394531-17.898438-5.730469 5.574219-17.394531c2.9375-9.171875-11.347656-13.761719-14.285156-4.578125l-16.234375 50.6875c-2.941407 9.171875 11.339843 13.769531 14.285156 4.578125l6.085937-19.007812zm0 0"/></svg>